<mxfile host="65bd71144e">
    <diagram id="B2O1cj_-pwZK5ZxHzDxG" name="第 1 页">
        <mxGraphModel dx="4250" dy="4763" grid="1" gridSize="10" guides="1" tooltips="1" connect="1" arrows="1" fold="1" page="1" pageScale="1" pageWidth="827" pageHeight="1169" math="0" shadow="0">
            <root>
                <mxCell id="0"/>
                <mxCell id="1" parent="0"/>
                <mxCell id="75" value="" style="group" vertex="1" connectable="0" parent="1">
                    <mxGeometry x="-580" y="40" width="1900" height="1010" as="geometry"/>
                </mxCell>
                <mxCell id="55" value="10" style="group" vertex="1" connectable="0" parent="75">
                    <mxGeometry width="1070" height="1010" as="geometry"/>
                </mxCell>
                <mxCell id="46" value="pkg/kubeapiserver/options/plugins.go" style="shape=note;whiteSpace=wrap;html=1;backgroundOutline=1;fontColor=#000000;darkOpacity=0.05;fillColor=#FFF9B2;strokeColor=none;fillStyle=solid;direction=west;gradientDirection=north;gradientColor=#FFF2A1;shadow=1;size=20;pointerEvents=1;hachureGap=4;fontFamily=Architects Daughter;fontSource=https%3A%2F%2Ffonts.googleapis.com%2Fcss%3Ffamily%3DArchitects%2BDaughter;fontSize=20;sketch=1;curveFitting=1;jiggle=2;movable=1;resizable=1;rotatable=1;deletable=1;editable=1;connectable=1;" parent="55" vertex="1">
                    <mxGeometry width="400" height="40" as="geometry"/>
                </mxCell>
                <mxCell id="54" value="&lt;div style=&quot;color: rgb(255, 255, 255); background-color: rgb(32, 40, 49); font-family: Consolas, &amp;quot;Courier New&amp;quot;, monospace; font-weight: normal; font-size: 20px; line-height: 27px;&quot;&gt;&lt;div&gt;&lt;span style=&quot;color: #55616c;font-style: italic;&quot;&gt;// RegisterAllAdmissionPlugins registers all admission plugins.&lt;/span&gt;&lt;/div&gt;&lt;div&gt;&lt;span style=&quot;color: #55616c;font-style: italic;&quot;&gt;// The order of registration is irrelevant, see AllOrderedPlugins for execution order.&lt;/span&gt;&lt;/div&gt;&lt;div&gt;&lt;span style=&quot;color: #ff92bb;font-weight: bold;&quot;&gt;func&lt;/span&gt;&lt;span style=&quot;color: #ffffff;&quot;&gt; &lt;/span&gt;&lt;span style=&quot;color: #ffc66d;&quot;&gt;RegisterAllAdmissionPlugins&lt;/span&gt;&lt;span style=&quot;color: #ffffff;&quot;&gt;(plugins &lt;/span&gt;&lt;span style=&quot;color: #40bf77;&quot;&gt;*&lt;/span&gt;&lt;span style=&quot;color: #ffffff;&quot;&gt;admission.Plugins) {&lt;/span&gt;&lt;/div&gt;&lt;div&gt;&lt;span style=&quot;color: #ffffff;&quot;&gt;&amp;nbsp; &amp;nbsp; admit.Register(plugins) &lt;/span&gt;&lt;span style=&quot;color: #55616c;font-style: italic;&quot;&gt;// DEPRECATED as no real meaning&lt;/span&gt;&lt;/div&gt;&lt;div&gt;&lt;span style=&quot;color: #ffffff;&quot;&gt;&amp;nbsp; &amp;nbsp; alwayspullimages.Register(plugins)&lt;/span&gt;&lt;/div&gt;&lt;div&gt;&lt;span style=&quot;color: #ffffff;&quot;&gt;&amp;nbsp; &amp;nbsp; antiaffinity.Register(plugins)&lt;/span&gt;&lt;/div&gt;&lt;div&gt;&lt;span style=&quot;color: #ffffff;&quot;&gt;&amp;nbsp; &amp;nbsp; defaulttolerationseconds.Register(plugins)&lt;/span&gt;&lt;/div&gt;&lt;div&gt;&lt;span style=&quot;color: #ffffff;&quot;&gt;&amp;nbsp; &amp;nbsp; defaultingressclass.Register(plugins)&lt;/span&gt;&lt;/div&gt;&lt;div&gt;&lt;span style=&quot;color: #ffffff;&quot;&gt;&amp;nbsp; &amp;nbsp; denyserviceexternalips.Register(plugins)&lt;/span&gt;&lt;/div&gt;&lt;div&gt;&lt;span style=&quot;color: #ffffff;&quot;&gt;&amp;nbsp; &amp;nbsp; deny.Register(plugins) &lt;/span&gt;&lt;span style=&quot;color: #55616c;font-style: italic;&quot;&gt;// DEPRECATED as no real meaning&lt;/span&gt;&lt;/div&gt;&lt;div&gt;&lt;span style=&quot;color: #ffffff;&quot;&gt;&amp;nbsp; &amp;nbsp; eventratelimit.Register(plugins)&lt;/span&gt;&lt;/div&gt;&lt;div&gt;&lt;span style=&quot;color: #ffffff;&quot;&gt;&amp;nbsp; &amp;nbsp; extendedresourcetoleration.Register(plugins)&lt;/span&gt;&lt;/div&gt;&lt;div&gt;&lt;span style=&quot;color: #ffffff;&quot;&gt;&amp;nbsp; &amp;nbsp; gc.Register(plugins)&lt;/span&gt;&lt;/div&gt;&lt;div&gt;&lt;span style=&quot;color: #ffffff;&quot;&gt;&amp;nbsp; &amp;nbsp; imagepolicy.Register(plugins)&lt;/span&gt;&lt;/div&gt;&lt;div&gt;&lt;span style=&quot;color: #ffffff;&quot;&gt;&amp;nbsp; &amp;nbsp; limitranger.Register(plugins)&lt;/span&gt;&lt;/div&gt;&lt;div&gt;&lt;span style=&quot;color: #ffffff;&quot;&gt;&amp;nbsp; &amp;nbsp; autoprovision.Register(plugins)&lt;/span&gt;&lt;/div&gt;&lt;div&gt;&lt;span style=&quot;color: #ffffff;&quot;&gt;&amp;nbsp; &amp;nbsp; exists.Register(plugins)&lt;/span&gt;&lt;/div&gt;&lt;div&gt;&lt;span style=&quot;color: #ffffff;&quot;&gt;&amp;nbsp; &amp;nbsp; noderestriction.Register(plugins)&lt;/span&gt;&lt;/div&gt;&lt;div&gt;&lt;span style=&quot;color: #ffffff;&quot;&gt;&amp;nbsp; &amp;nbsp; nodetaint.Register(plugins)&lt;/span&gt;&lt;/div&gt;&lt;div&gt;&lt;span style=&quot;color: #ffffff;&quot;&gt;&amp;nbsp; &amp;nbsp; label.Register(plugins) &lt;/span&gt;&lt;span style=&quot;color: #55616c;font-style: italic;&quot;&gt;// DEPRECATED, future PVs should not rely on labels for zone topology&lt;/span&gt;&lt;/div&gt;&lt;div&gt;&lt;span style=&quot;color: #ffffff;&quot;&gt;&amp;nbsp; &amp;nbsp; podnodeselector.Register(plugins)&lt;/span&gt;&lt;/div&gt;&lt;div&gt;&lt;span style=&quot;color: #ffffff;&quot;&gt;&amp;nbsp; &amp;nbsp; podtolerationrestriction.Register(plugins)&lt;/span&gt;&lt;/div&gt;&lt;div&gt;&lt;span style=&quot;color: #ffffff;&quot;&gt;&amp;nbsp; &amp;nbsp; runtimeclass.Register(plugins)&lt;/span&gt;&lt;/div&gt;&lt;div&gt;&lt;span style=&quot;color: #ffffff;&quot;&gt;&amp;nbsp; &amp;nbsp; resourcequota.Register(plugins)&lt;/span&gt;&lt;/div&gt;&lt;div&gt;&lt;span style=&quot;color: #ffffff;&quot;&gt;&amp;nbsp; &amp;nbsp; podsecurity.Register(plugins)&lt;/span&gt;&lt;/div&gt;&lt;div&gt;&lt;span style=&quot;color: #ffffff;&quot;&gt;&amp;nbsp; &amp;nbsp; podsecuritypolicy.Register(plugins)&lt;/span&gt;&lt;/div&gt;&lt;div&gt;&lt;span style=&quot;color: #ffffff;&quot;&gt;&amp;nbsp; &amp;nbsp; podpriority.Register(plugins)&lt;/span&gt;&lt;/div&gt;&lt;div&gt;&lt;span style=&quot;color: #ffffff;&quot;&gt;&amp;nbsp; &amp;nbsp; scdeny.Register(plugins)&lt;/span&gt;&lt;/div&gt;&lt;div&gt;&lt;span style=&quot;color: #ffffff;&quot;&gt;&amp;nbsp; &amp;nbsp; serviceaccount.Register(plugins)&lt;/span&gt;&lt;/div&gt;&lt;div&gt;&lt;span style=&quot;color: #ffffff;&quot;&gt;&amp;nbsp; &amp;nbsp; setdefault.Register(plugins)&lt;/span&gt;&lt;/div&gt;&lt;div&gt;&lt;span style=&quot;color: #ffffff;&quot;&gt;&amp;nbsp; &amp;nbsp; resize.Register(plugins)&lt;/span&gt;&lt;/div&gt;&lt;div&gt;&lt;span style=&quot;color: #ffffff;&quot;&gt;&amp;nbsp; &amp;nbsp; storageobjectinuseprotection.Register(plugins)&lt;/span&gt;&lt;/div&gt;&lt;div&gt;&lt;span style=&quot;color: #ffffff;&quot;&gt;&amp;nbsp; &amp;nbsp; certapproval.Register(plugins)&lt;/span&gt;&lt;/div&gt;&lt;div&gt;&lt;span style=&quot;color: #ffffff;&quot;&gt;&amp;nbsp; &amp;nbsp; certsigning.Register(plugins)&lt;/span&gt;&lt;/div&gt;&lt;div&gt;&lt;span style=&quot;color: #ffffff;&quot;&gt;&amp;nbsp; &amp;nbsp; certsubjectrestriction.Register(plugins)&lt;/span&gt;&lt;/div&gt;&lt;div&gt;&lt;span style=&quot;color: #ffffff;&quot;&gt;}&lt;/span&gt;&lt;/div&gt;&lt;/div&gt;" style="text;whiteSpace=wrap;html=1;fontSize=20;fontFamily=Architects Daughter;movable=1;resizable=1;rotatable=1;deletable=1;editable=1;connectable=1;spacingLeft=1;" vertex="1" parent="55">
                    <mxGeometry y="30" width="1070" height="980" as="geometry"/>
                </mxCell>
                <mxCell id="74" value="把所有的 Admission Plugin 都拿出来，通过传入的参数 plugins 带出去，最后被交到 option 的 Admission 属性上" style="shape=note;whiteSpace=wrap;html=1;backgroundOutline=1;fontColor=#000000;darkOpacity=0.05;fillColor=#FFF9B2;strokeColor=none;fillStyle=solid;direction=west;gradientDirection=north;gradientColor=#FFF2A1;shadow=1;size=20;pointerEvents=1;sketch=0;hachureGap=4;jiggle=2;curveFitting=1;fontFamily=Architects Daughter;fontSource=https%3A%2F%2Ffonts.googleapis.com%2Fcss%3Ffamily%3DArchitects%2BDaughter;fontSize=26;" vertex="1" parent="55">
                    <mxGeometry x="750" y="30" width="320" height="170" as="geometry"/>
                </mxCell>
                <mxCell id="58" value="Text" style="text;strokeColor=none;fillColor=none;html=1;align=center;verticalAlign=middle;whiteSpace=wrap;rounded=0;sketch=1;hachureGap=4;jiggle=2;curveFitting=1;fontFamily=Architects Daughter;fontSource=https%3A%2F%2Ffonts.googleapis.com%2Fcss%3Ffamily%3DArchitects%2BDaughter;fontSize=20;" vertex="1" parent="75">
                    <mxGeometry x="690" y="570" width="60" height="30" as="geometry"/>
                </mxCell>
                <mxCell id="59" value="apiserver.go:main()" style="rounded=0;whiteSpace=wrap;html=1;hachureGap=4;fontFamily=Architects Daughter;fontSource=https%3A%2F%2Ffonts.googleapis.com%2Fcss%3Ffamily%3DArchitects%2BDaughter;fontSize=26;" vertex="1" parent="75">
                    <mxGeometry x="1160" y="80" width="250" height="80" as="geometry"/>
                </mxCell>
                <mxCell id="60" value="app/server.go:NewAPIServerCommand()" style="rounded=0;whiteSpace=wrap;html=1;hachureGap=4;fontFamily=Architects Daughter;fontSource=https%3A%2F%2Ffonts.googleapis.com%2Fcss%3Ffamily%3DArchitects%2BDaughter;fontSize=26;" vertex="1" parent="75">
                    <mxGeometry x="1160" y="240" width="510" height="80" as="geometry"/>
                </mxCell>
                <mxCell id="68" style="edgeStyle=none;curved=1;rounded=0;sketch=1;hachureGap=4;jiggle=2;curveFitting=1;orthogonalLoop=1;jettySize=auto;html=1;entryX=0.25;entryY=0;entryDx=0;entryDy=0;fontFamily=Architects Daughter;fontSource=https%3A%2F%2Ffonts.googleapis.com%2Fcss%3Ffamily%3DArchitects%2BDaughter;fontSize=26;endArrow=open;startSize=14;endSize=14;sourcePerimeterSpacing=8;targetPerimeterSpacing=8;" edge="1" parent="75" source="59" target="60">
                    <mxGeometry relative="1" as="geometry"/>
                </mxCell>
                <mxCell id="61" value="app/options.go:NewServerRunOptions()" style="rounded=0;whiteSpace=wrap;html=1;hachureGap=4;fontFamily=Architects Daughter;fontSource=https%3A%2F%2Ffonts.googleapis.com%2Fcss%3Ffamily%3DArchitects%2BDaughter;fontSize=26;" vertex="1" parent="75">
                    <mxGeometry x="1160" y="375" width="510" height="80" as="geometry"/>
                </mxCell>
                <mxCell id="69" style="edgeStyle=none;curved=1;rounded=0;sketch=1;hachureGap=4;jiggle=2;curveFitting=1;orthogonalLoop=1;jettySize=auto;html=1;entryX=0.25;entryY=0;entryDx=0;entryDy=0;fontFamily=Architects Daughter;fontSource=https%3A%2F%2Ffonts.googleapis.com%2Fcss%3Ffamily%3DArchitects%2BDaughter;fontSize=26;endArrow=open;startSize=14;endSize=14;sourcePerimeterSpacing=8;targetPerimeterSpacing=8;exitX=0.23;exitY=1.072;exitDx=0;exitDy=0;exitPerimeter=0;" edge="1" parent="75" source="60" target="61">
                    <mxGeometry relative="1" as="geometry"/>
                </mxCell>
                <mxCell id="73" style="edgeStyle=orthogonalEdgeStyle;rounded=0;sketch=1;hachureGap=4;jiggle=2;curveFitting=1;orthogonalLoop=1;jettySize=auto;html=1;entryX=1.005;entryY=0.512;entryDx=0;entryDy=0;entryPerimeter=0;fontFamily=Architects Daughter;fontSource=https%3A%2F%2Ffonts.googleapis.com%2Fcss%3Ffamily%3DArchitects%2BDaughter;fontSize=26;fontColor=#FF8000;endArrow=open;startSize=14;endSize=14;sourcePerimeterSpacing=8;targetPerimeterSpacing=8;exitX=0;exitY=0.5;exitDx=0;exitDy=0;" edge="1" parent="75" source="62" target="54">
                    <mxGeometry relative="1" as="geometry"/>
                </mxCell>
                <mxCell id="62" value="&lt;font style=&quot;font-size: 26px;&quot;&gt;kubeapiserver/options/plugins.go:&lt;span style=&quot;text-align: left;&quot;&gt;RegisterAllAdmissionPlugins&lt;/span&gt;()&lt;/font&gt;" style="rounded=0;whiteSpace=wrap;html=1;hachureGap=4;fontFamily=Architects Daughter;fontSource=https%3A%2F%2Ffonts.googleapis.com%2Fcss%3Ffamily%3DArchitects%2BDaughter;fontSize=20;" vertex="1" parent="75">
                    <mxGeometry x="1160" y="750" width="740" height="100" as="geometry"/>
                </mxCell>
                <mxCell id="63" value="kubeapiserver/options/admission.go:NewAdmissionOptions()" style="rounded=0;whiteSpace=wrap;html=1;hachureGap=4;fontFamily=Architects Daughter;fontSource=https%3A%2F%2Ffonts.googleapis.com%2Fcss%3Ffamily%3DArchitects%2BDaughter;fontSize=26;" vertex="1" parent="75">
                    <mxGeometry x="1160" y="590" width="740" height="100" as="geometry"/>
                </mxCell>
                <mxCell id="70" style="edgeStyle=none;curved=1;rounded=0;sketch=1;hachureGap=4;jiggle=2;curveFitting=1;orthogonalLoop=1;jettySize=auto;html=1;entryX=0.17;entryY=-0.028;entryDx=0;entryDy=0;entryPerimeter=0;fontFamily=Architects Daughter;fontSource=https%3A%2F%2Ffonts.googleapis.com%2Fcss%3Ffamily%3DArchitects%2BDaughter;fontSize=26;endArrow=open;startSize=14;endSize=14;sourcePerimeterSpacing=8;targetPerimeterSpacing=8;exitX=0.221;exitY=0.996;exitDx=0;exitDy=0;exitPerimeter=0;" edge="1" parent="75" source="61" target="63">
                    <mxGeometry relative="1" as="geometry"/>
                </mxCell>
                <mxCell id="71" style="edgeStyle=none;curved=1;rounded=0;sketch=1;hachureGap=4;jiggle=2;curveFitting=1;orthogonalLoop=1;jettySize=auto;html=1;fontFamily=Architects Daughter;fontSource=https%3A%2F%2Ffonts.googleapis.com%2Fcss%3Ffamily%3DArchitects%2BDaughter;fontSize=26;endArrow=open;startSize=14;endSize=14;sourcePerimeterSpacing=8;targetPerimeterSpacing=8;exitX=0.138;exitY=1.047;exitDx=0;exitDy=0;exitPerimeter=0;entryX=0.129;entryY=-0.031;entryDx=0;entryDy=0;entryPerimeter=0;" edge="1" parent="75" source="63" target="62">
                    <mxGeometry relative="1" as="geometry">
                        <mxPoint x="1270.0000000000005" y="652.8" as="sourcePoint"/>
                        <mxPoint x="1260" y="730" as="targetPoint"/>
                    </mxGeometry>
                </mxCell>
                <mxCell id="72" value="获取所有 Admission Plugin，放入 option 结构体的 Admission 属性" style="text;strokeColor=none;align=center;fillColor=none;html=1;verticalAlign=middle;whiteSpace=wrap;rounded=0;sketch=0;hachureGap=4;jiggle=2;curveFitting=1;fontFamily=Architects Daughter;fontSource=https%3A%2F%2Ffonts.googleapis.com%2Fcss%3Ffamily%3DArchitects%2BDaughter;fontSize=26;fontColor=#FF8000;" vertex="1" parent="75">
                    <mxGeometry x="1285" y="490" width="460" height="70" as="geometry"/>
                </mxCell>
                <mxCell id="83" value="Part1" style="rounded=0;whiteSpace=wrap;html=1;sketch=0;hachureGap=4;jiggle=2;curveFitting=1;fontFamily=Architects Daughter;fontSource=https%3A%2F%2Ffonts.googleapis.com%2Fcss%3Ffamily%3DArchitects%2BDaughter;fontSize=50;fillColor=#fff2cc;strokeColor=#d6b656;" vertex="1" parent="1">
                    <mxGeometry x="-580" y="-80" width="1183" height="100" as="geometry"/>
                </mxCell>
                <mxCell id="97" value="" style="group" vertex="1" connectable="0" parent="1">
                    <mxGeometry x="-580" y="1090" width="2130" height="1440" as="geometry"/>
                </mxCell>
                <mxCell id="84" value="Part2" style="rounded=0;whiteSpace=wrap;html=1;sketch=0;hachureGap=4;jiggle=2;curveFitting=1;fontFamily=Architects Daughter;fontSource=https%3A%2F%2Ffonts.googleapis.com%2Fcss%3Ffamily%3DArchitects%2BDaughter;fontSize=50;fillColor=#fff2cc;strokeColor=#d6b656;" vertex="1" parent="97">
                    <mxGeometry width="1183" height="100" as="geometry"/>
                </mxCell>
                <mxCell id="90" value="" style="group" vertex="1" connectable="0" parent="97">
                    <mxGeometry y="190" width="570" height="700" as="geometry"/>
                </mxCell>
                <mxCell id="85" value="app/server.go:CreateKubeAPIServerConfig()" style="rounded=0;whiteSpace=wrap;html=1;sketch=0;hachureGap=4;jiggle=2;curveFitting=1;fontFamily=Architects Daughter;fontSource=https%3A%2F%2Ffonts.googleapis.com%2Fcss%3Ffamily%3DArchitects%2BDaughter;fontSize=24;fontColor=#000000;fillColor=default;" vertex="1" parent="90">
                    <mxGeometry width="570" height="100" as="geometry"/>
                </mxCell>
                <mxCell id="86" value="app/server.go:buildGenericConfig()" style="rounded=0;whiteSpace=wrap;html=1;sketch=0;hachureGap=4;jiggle=2;curveFitting=1;fontFamily=Architects Daughter;fontSource=https%3A%2F%2Ffonts.googleapis.com%2Fcss%3Ffamily%3DArchitects%2BDaughter;fontSize=24;fontColor=#000000;fillColor=default;" vertex="1" parent="90">
                    <mxGeometry y="200" width="570" height="100" as="geometry"/>
                </mxCell>
                <mxCell id="87" style="edgeStyle=orthogonalEdgeStyle;rounded=0;sketch=1;hachureGap=4;jiggle=2;curveFitting=1;orthogonalLoop=1;jettySize=auto;html=1;entryX=0.5;entryY=0;entryDx=0;entryDy=0;fontFamily=Architects Daughter;fontSource=https%3A%2F%2Ffonts.googleapis.com%2Fcss%3Ffamily%3DArchitects%2BDaughter;fontSize=24;fontColor=#000000;endArrow=open;startSize=14;endSize=14;sourcePerimeterSpacing=8;targetPerimeterSpacing=8;" edge="1" parent="90" source="85" target="86">
                    <mxGeometry relative="1" as="geometry"/>
                </mxCell>
                <mxCell id="88" value="&lt;div style=&quot;color: rgb(255, 255, 255); background-color: rgb(32, 40, 49); font-family: Consolas, &amp;quot;Courier New&amp;quot;, monospace; font-weight: normal; font-size: 20px; line-height: 27px;&quot;&gt;&lt;div&gt;&lt;span style=&quot;color: #ffffff;&quot;&gt;&amp;nbsp; &amp;nbsp; err &lt;/span&gt;&lt;span style=&quot;color: #40bf77;&quot;&gt;=&lt;/span&gt;&lt;span style=&quot;color: #ffffff;&quot;&gt; s.Admission.ApplyTo(&lt;/span&gt;&lt;/div&gt;&lt;div&gt;&lt;span style=&quot;color: #ffffff;&quot;&gt;&amp;nbsp; &amp;nbsp; &amp;nbsp; &amp;nbsp; genericConfig,&lt;/span&gt;&lt;/div&gt;&lt;div&gt;&lt;span style=&quot;color: #ffffff;&quot;&gt;&amp;nbsp; &amp;nbsp; &amp;nbsp; &amp;nbsp; versionedInformers,&lt;/span&gt;&lt;/div&gt;&lt;div&gt;&lt;span style=&quot;color: #ffffff;&quot;&gt;&amp;nbsp; &amp;nbsp; &amp;nbsp; &amp;nbsp; kubeClientConfig,&lt;/span&gt;&lt;/div&gt;&lt;div&gt;&lt;span style=&quot;color: #ffffff;&quot;&gt;&amp;nbsp; &amp;nbsp; &amp;nbsp; &amp;nbsp; utilfeature.DefaultFeatureGate,&lt;/span&gt;&lt;/div&gt;&lt;div&gt;&lt;span style=&quot;color: #ffffff;&quot;&gt;&amp;nbsp; &amp;nbsp; &amp;nbsp; &amp;nbsp; pluginInitializers&lt;/span&gt;&lt;span style=&quot;color: #40bf77;&quot;&gt;...&lt;/span&gt;&lt;span style=&quot;color: #ffffff;&quot;&gt;)&lt;/span&gt;&lt;/div&gt;&lt;div&gt;&lt;span style=&quot;color: #ffffff;&quot;&gt;&amp;nbsp; &amp;nbsp; &lt;/span&gt;&lt;span style=&quot;color: #ff92bb;font-weight: bold;&quot;&gt;if&lt;/span&gt;&lt;span style=&quot;color: #ffffff;&quot;&gt; err &lt;/span&gt;&lt;span style=&quot;color: #40bf77;&quot;&gt;!=&lt;/span&gt;&lt;span style=&quot;color: #ffffff;&quot;&gt; nil {&lt;/span&gt;&lt;/div&gt;&lt;div&gt;&lt;span style=&quot;color: #ffffff;&quot;&gt;&amp;nbsp; &amp;nbsp; &amp;nbsp; &amp;nbsp; lastErr &lt;/span&gt;&lt;span style=&quot;color: #40bf77;&quot;&gt;=&lt;/span&gt;&lt;span style=&quot;color: #ffffff;&quot;&gt; fmt.Errorf(&lt;/span&gt;&lt;span style=&quot;color: #40bf77;&quot;&gt;&quot;&lt;/span&gt;&lt;span style=&quot;color: #3d8beb;&quot;&gt;failed to initialize admission: %v&lt;/span&gt;&lt;span style=&quot;color: #40bf77;&quot;&gt;&quot;&lt;/span&gt;&lt;span style=&quot;color: #ffffff;&quot;&gt;, err)&lt;/span&gt;&lt;/div&gt;&lt;div&gt;&lt;span style=&quot;color: #ffffff;&quot;&gt;&amp;nbsp; &amp;nbsp; &amp;nbsp; &amp;nbsp; &lt;/span&gt;&lt;span style=&quot;color: #ff92bb;font-weight: bold;&quot;&gt;return&lt;/span&gt;&lt;/div&gt;&lt;div&gt;&lt;span style=&quot;color: #ffffff;&quot;&gt;&amp;nbsp; &amp;nbsp; }&lt;/span&gt;&lt;/div&gt;&lt;/div&gt;" style="text;whiteSpace=wrap;html=1;fontSize=24;fontFamily=Architects Daughter;fontColor=#000000;" vertex="1" parent="90">
                    <mxGeometry x="5" y="380" width="560" height="320" as="geometry"/>
                </mxCell>
                <mxCell id="89" style="edgeStyle=orthogonalEdgeStyle;rounded=0;sketch=1;hachureGap=4;jiggle=2;curveFitting=1;orthogonalLoop=1;jettySize=auto;html=1;fontFamily=Architects Daughter;fontSource=https%3A%2F%2Ffonts.googleapis.com%2Fcss%3Ffamily%3DArchitects%2BDaughter;fontSize=24;fontColor=#000000;endArrow=open;startSize=14;endSize=14;sourcePerimeterSpacing=8;targetPerimeterSpacing=8;entryX=0.5;entryY=0;entryDx=0;entryDy=0;" edge="1" parent="90" source="86" target="88">
                    <mxGeometry relative="1" as="geometry">
                        <mxPoint x="285" y="430" as="targetPoint"/>
                    </mxGeometry>
                </mxCell>
                <mxCell id="91" value="&lt;div style=&quot;color: rgb(255, 255, 255); background-color: rgb(32, 40, 49); font-family: Consolas, &amp;quot;Courier New&amp;quot;, monospace; font-weight: normal; font-size: 20px; line-height: 27px;&quot;&gt;&lt;div&gt;&lt;span style=&quot;color: #55616c;font-style: italic;&quot;&gt;// ApplyTo adds the admission chain to the server configuration.&lt;/span&gt;&lt;/div&gt;&lt;div&gt;&lt;span style=&quot;color: #55616c;font-style: italic;&quot;&gt;// In case admission plugin names were not provided by a cluster-admin they will be prepared from the recommended/default values.&lt;/span&gt;&lt;/div&gt;&lt;div&gt;&lt;span style=&quot;color: #55616c;font-style: italic;&quot;&gt;// In addition the method lazily initializes a generic plugin that is appended to the list of pluginInitializers&lt;/span&gt;&lt;/div&gt;&lt;div&gt;&lt;span style=&quot;color: #55616c;font-style: italic;&quot;&gt;// note this method uses:&lt;/span&gt;&lt;/div&gt;&lt;div&gt;&lt;span style=&quot;color: #55616c;font-style: italic;&quot;&gt;// &amp;nbsp;genericconfig.Authorizer&lt;/span&gt;&lt;/div&gt;&lt;div&gt;&lt;span style=&quot;color: #ff92bb;font-weight: bold;&quot;&gt;func&lt;/span&gt;&lt;span style=&quot;color: #ffffff;&quot;&gt; (a &lt;/span&gt;&lt;span style=&quot;color: #40bf77;&quot;&gt;*&lt;/span&gt;&lt;span style=&quot;color: #ffffff;&quot;&gt;AdmissionOptions) &lt;/span&gt;&lt;span style=&quot;color: #ffc66d;&quot;&gt;ApplyTo&lt;/span&gt;&lt;span style=&quot;color: #ffffff;&quot;&gt;(&lt;/span&gt;&lt;/div&gt;&lt;div&gt;&lt;span style=&quot;color: #ffffff;&quot;&gt;&amp;nbsp; &amp;nbsp; c &lt;/span&gt;&lt;span style=&quot;color: #40bf77;&quot;&gt;*&lt;/span&gt;&lt;span style=&quot;color: #ffffff;&quot;&gt;server.Config,&lt;/span&gt;&lt;/div&gt;&lt;div&gt;&lt;span style=&quot;color: #ffffff;&quot;&gt;&amp;nbsp; &amp;nbsp; informers informers.SharedInformerFactory,&lt;/span&gt;&lt;/div&gt;&lt;div&gt;&lt;span style=&quot;color: #ffffff;&quot;&gt;&amp;nbsp; &amp;nbsp; kubeAPIServerClientConfig &lt;/span&gt;&lt;span style=&quot;color: #40bf77;&quot;&gt;*&lt;/span&gt;&lt;span style=&quot;color: #ffffff;&quot;&gt;rest.Config,&lt;/span&gt;&lt;/div&gt;&lt;div&gt;&lt;span style=&quot;color: #ffffff;&quot;&gt;&amp;nbsp; &amp;nbsp; features featuregate.FeatureGate,&lt;/span&gt;&lt;/div&gt;&lt;div&gt;&lt;span style=&quot;color: #ffffff;&quot;&gt;&amp;nbsp; &amp;nbsp; pluginInitializers &lt;/span&gt;&lt;span style=&quot;color: #40bf77;&quot;&gt;...&lt;/span&gt;&lt;span style=&quot;color: #ffffff;&quot;&gt;admission.PluginInitializer,&lt;/span&gt;&lt;/div&gt;&lt;div&gt;&lt;span style=&quot;color: #ffffff;&quot;&gt;) &lt;/span&gt;&lt;span style=&quot;color: #ff92bb;font-weight: bold;&quot;&gt;error&lt;/span&gt;&lt;span style=&quot;color: #ffffff;&quot;&gt; {&lt;/span&gt;&lt;/div&gt;&lt;div&gt;&lt;span style=&quot;color: #ffffff;&quot;&gt;&amp;nbsp; &amp;nbsp; &lt;/span&gt;&lt;span style=&quot;color: #ff92bb;font-weight: bold;&quot;&gt;if&lt;/span&gt;&lt;span style=&quot;color: #ffffff;&quot;&gt; a &lt;/span&gt;&lt;span style=&quot;color: #40bf77;&quot;&gt;==&lt;/span&gt;&lt;span style=&quot;color: #ffffff;&quot;&gt; nil {&lt;/span&gt;&lt;/div&gt;&lt;div&gt;&lt;span style=&quot;color: #ffffff;&quot;&gt;&amp;nbsp; &amp;nbsp; &amp;nbsp; &amp;nbsp; &lt;/span&gt;&lt;span style=&quot;color: #ff92bb;font-weight: bold;&quot;&gt;return&lt;/span&gt;&lt;span style=&quot;color: #ffffff;&quot;&gt; nil&lt;/span&gt;&lt;/div&gt;&lt;div&gt;&lt;span style=&quot;color: #ffffff;&quot;&gt;&amp;nbsp; &amp;nbsp; }&lt;/span&gt;&lt;/div&gt;&lt;br&gt;&lt;div&gt;&lt;span style=&quot;color: #ffffff;&quot;&gt;&amp;nbsp; &amp;nbsp; &lt;/span&gt;&lt;span style=&quot;color: #55616c;font-style: italic;&quot;&gt;// Admission depends on CoreAPI to set SharedInformerFactory and ClientConfig.&lt;/span&gt;&lt;/div&gt;&lt;div&gt;&lt;span style=&quot;color: #ffffff;&quot;&gt;&amp;nbsp; &amp;nbsp; &lt;/span&gt;&lt;span style=&quot;color: #ff92bb;font-weight: bold;&quot;&gt;if&lt;/span&gt;&lt;span style=&quot;color: #ffffff;&quot;&gt; informers &lt;/span&gt;&lt;span style=&quot;color: #40bf77;&quot;&gt;==&lt;/span&gt;&lt;span style=&quot;color: #ffffff;&quot;&gt; nil {&lt;/span&gt;&lt;/div&gt;&lt;div&gt;&lt;span style=&quot;color: #ffffff;&quot;&gt;&amp;nbsp; &amp;nbsp; &amp;nbsp; &amp;nbsp; &lt;/span&gt;&lt;span style=&quot;color: #ff92bb;font-weight: bold;&quot;&gt;return&lt;/span&gt;&lt;span style=&quot;color: #ffffff;&quot;&gt; fmt.Errorf(&lt;/span&gt;&lt;span style=&quot;color: #40bf77;&quot;&gt;&quot;&lt;/span&gt;&lt;span style=&quot;color: #3d8beb;&quot;&gt;admission depends on a Kubernetes core API shared informer, it cannot be nil&lt;/span&gt;&lt;span style=&quot;color: #40bf77;&quot;&gt;&quot;&lt;/span&gt;&lt;span style=&quot;color: #ffffff;&quot;&gt;)&lt;/span&gt;&lt;/div&gt;&lt;div&gt;&lt;span style=&quot;color: #ffffff;&quot;&gt;&amp;nbsp; &amp;nbsp; }&lt;/span&gt;&lt;/div&gt;&lt;br&gt;&lt;div&gt;&lt;span style=&quot;color: #ffffff;&quot;&gt;&amp;nbsp; &amp;nbsp; pluginNames &lt;/span&gt;&lt;span style=&quot;color: #40bf77;&quot;&gt;:=&lt;/span&gt;&lt;span style=&quot;color: #ffffff;&quot;&gt; a.enabledPluginNames()&lt;/span&gt;&lt;/div&gt;&lt;br&gt;&lt;div&gt;&lt;span style=&quot;color: #ffffff;&quot;&gt;&amp;nbsp; &amp;nbsp; pluginsConfigProvider, err &lt;/span&gt;&lt;span style=&quot;color: #40bf77;&quot;&gt;:=&lt;/span&gt;&lt;span style=&quot;color: #ffffff;&quot;&gt; admission.ReadAdmissionConfiguration(pluginNames, a.ConfigFile, configScheme)&lt;/span&gt;&lt;/div&gt;&lt;div&gt;&lt;span style=&quot;color: #ffffff;&quot;&gt;&amp;nbsp; &amp;nbsp; &lt;/span&gt;&lt;span style=&quot;color: #ff92bb;font-weight: bold;&quot;&gt;if&lt;/span&gt;&lt;span style=&quot;color: #ffffff;&quot;&gt; err &lt;/span&gt;&lt;span style=&quot;color: #40bf77;&quot;&gt;!=&lt;/span&gt;&lt;span style=&quot;color: #ffffff;&quot;&gt; nil {&lt;/span&gt;&lt;/div&gt;&lt;div&gt;&lt;span style=&quot;color: #ffffff;&quot;&gt;&amp;nbsp; &amp;nbsp; &amp;nbsp; &amp;nbsp; &lt;/span&gt;&lt;span style=&quot;color: #ff92bb;font-weight: bold;&quot;&gt;return&lt;/span&gt;&lt;span style=&quot;color: #ffffff;&quot;&gt; fmt.Errorf(&lt;/span&gt;&lt;span style=&quot;color: #40bf77;&quot;&gt;&quot;&lt;/span&gt;&lt;span style=&quot;color: #3d8beb;&quot;&gt;failed to read plugin config: %v&lt;/span&gt;&lt;span style=&quot;color: #40bf77;&quot;&gt;&quot;&lt;/span&gt;&lt;span style=&quot;color: #ffffff;&quot;&gt;, err)&lt;/span&gt;&lt;/div&gt;&lt;div&gt;&lt;span style=&quot;color: #ffffff;&quot;&gt;&amp;nbsp; &amp;nbsp; }&lt;/span&gt;&lt;/div&gt;&lt;br&gt;&lt;div&gt;&lt;span style=&quot;color: #ffffff;&quot;&gt;&amp;nbsp; &amp;nbsp; clientset, err &lt;/span&gt;&lt;span style=&quot;color: #40bf77;&quot;&gt;:=&lt;/span&gt;&lt;span style=&quot;color: #ffffff;&quot;&gt; kubernetes.NewForConfig(kubeAPIServerClientConfig)&lt;/span&gt;&lt;/div&gt;&lt;div&gt;&lt;span style=&quot;color: #ffffff;&quot;&gt;&amp;nbsp; &amp;nbsp; &lt;/span&gt;&lt;span style=&quot;color: #ff92bb;font-weight: bold;&quot;&gt;if&lt;/span&gt;&lt;span style=&quot;color: #ffffff;&quot;&gt; err &lt;/span&gt;&lt;span style=&quot;color: #40bf77;&quot;&gt;!=&lt;/span&gt;&lt;span style=&quot;color: #ffffff;&quot;&gt; nil {&lt;/span&gt;&lt;/div&gt;&lt;div&gt;&lt;span style=&quot;color: #ffffff;&quot;&gt;&amp;nbsp; &amp;nbsp; &amp;nbsp; &amp;nbsp; &lt;/span&gt;&lt;span style=&quot;color: #ff92bb;font-weight: bold;&quot;&gt;return&lt;/span&gt;&lt;span style=&quot;color: #ffffff;&quot;&gt; err&lt;/span&gt;&lt;/div&gt;&lt;div&gt;&lt;span style=&quot;color: #ffffff;&quot;&gt;&amp;nbsp; &amp;nbsp; }&lt;/span&gt;&lt;/div&gt;&lt;div&gt;&lt;span style=&quot;color: #ffffff;&quot;&gt;&amp;nbsp; &amp;nbsp; genericInitializer &lt;/span&gt;&lt;span style=&quot;color: #40bf77;&quot;&gt;:=&lt;/span&gt;&lt;span style=&quot;color: #ffffff;&quot;&gt; initializer.New(clientset, informers, c.Authorization.Authorizer, features)&lt;/span&gt;&lt;/div&gt;&lt;div&gt;&lt;span style=&quot;color: #ffffff;&quot;&gt;&amp;nbsp; &amp;nbsp; initializersChain &lt;/span&gt;&lt;span style=&quot;color: #40bf77;&quot;&gt;:=&lt;/span&gt;&lt;span style=&quot;color: #ffffff;&quot;&gt; admission.PluginInitializers{}&lt;/span&gt;&lt;/div&gt;&lt;div&gt;&lt;span style=&quot;color: #ffffff;&quot;&gt;&amp;nbsp; &amp;nbsp; pluginInitializers &lt;/span&gt;&lt;span style=&quot;color: #40bf77;&quot;&gt;=&lt;/span&gt;&lt;span style=&quot;color: #ffffff;&quot;&gt; append(pluginInitializers, genericInitializer)&lt;/span&gt;&lt;/div&gt;&lt;div&gt;&lt;span style=&quot;color: #ffffff;&quot;&gt;&amp;nbsp; &amp;nbsp; initializersChain &lt;/span&gt;&lt;span style=&quot;color: #40bf77;&quot;&gt;=&lt;/span&gt;&lt;span style=&quot;color: #ffffff;&quot;&gt; append(initializersChain, pluginInitializers&lt;/span&gt;&lt;span style=&quot;color: #40bf77;&quot;&gt;...&lt;/span&gt;&lt;span style=&quot;color: #ffffff;&quot;&gt;)&lt;/span&gt;&lt;/div&gt;&lt;br&gt;&lt;div&gt;&lt;span style=&quot;color: #ffffff;&quot;&gt;&amp;nbsp; &amp;nbsp; admissionChain, err &lt;/span&gt;&lt;span style=&quot;color: #40bf77;&quot;&gt;:=&lt;/span&gt;&lt;span style=&quot;color: #ffffff;&quot;&gt; a.Plugins.NewFromPlugins(pluginNames, pluginsConfigProvider, initializersChain, a.Decorators)&lt;/span&gt;&lt;/div&gt;&lt;div&gt;&lt;span style=&quot;color: #ffffff;&quot;&gt;&amp;nbsp; &amp;nbsp; &lt;/span&gt;&lt;span style=&quot;color: #ff92bb;font-weight: bold;&quot;&gt;if&lt;/span&gt;&lt;span style=&quot;color: #ffffff;&quot;&gt; err &lt;/span&gt;&lt;span style=&quot;color: #40bf77;&quot;&gt;!=&lt;/span&gt;&lt;span style=&quot;color: #ffffff;&quot;&gt; nil {&lt;/span&gt;&lt;/div&gt;&lt;div&gt;&lt;span style=&quot;color: #ffffff;&quot;&gt;&amp;nbsp; &amp;nbsp; &amp;nbsp; &amp;nbsp; &lt;/span&gt;&lt;span style=&quot;color: #ff92bb;font-weight: bold;&quot;&gt;return&lt;/span&gt;&lt;span style=&quot;color: #ffffff;&quot;&gt; err&lt;/span&gt;&lt;/div&gt;&lt;div&gt;&lt;span style=&quot;color: #ffffff;&quot;&gt;&amp;nbsp; &amp;nbsp; }&lt;/span&gt;&lt;/div&gt;&lt;br&gt;&lt;div&gt;&lt;span style=&quot;color: #ffffff;&quot;&gt;&amp;nbsp; &amp;nbsp; c.AdmissionControl &lt;/span&gt;&lt;span style=&quot;color: #40bf77;&quot;&gt;=&lt;/span&gt;&lt;span style=&quot;color: #ffffff;&quot;&gt; admissionmetrics.WithStepMetrics(admissionChain)&lt;/span&gt;&lt;/div&gt;&lt;div&gt;&lt;span style=&quot;color: #ffffff;&quot;&gt;&amp;nbsp; &amp;nbsp; &lt;/span&gt;&lt;span style=&quot;color: #ff92bb;font-weight: bold;&quot;&gt;return&lt;/span&gt;&lt;span style=&quot;color: #ffffff;&quot;&gt; nil&lt;/span&gt;&lt;/div&gt;&lt;div&gt;&lt;span style=&quot;color: #ffffff;&quot;&gt;}&lt;/span&gt;&lt;/div&gt;&lt;/div&gt;" style="text;whiteSpace=wrap;html=1;fontSize=24;fontFamily=Architects Daughter;fontColor=#000000;" vertex="1" parent="97">
                    <mxGeometry x="700" y="190" width="1430" height="1250" as="geometry"/>
                </mxCell>
                <mxCell id="92" style="edgeStyle=orthogonalEdgeStyle;rounded=0;sketch=1;hachureGap=4;jiggle=2;curveFitting=1;orthogonalLoop=1;jettySize=auto;html=1;entryX=0;entryY=0.25;entryDx=0;entryDy=0;fontFamily=Architects Daughter;fontSource=https%3A%2F%2Ffonts.googleapis.com%2Fcss%3Ffamily%3DArchitects%2BDaughter;fontSize=24;fontColor=#000000;endArrow=open;startSize=14;endSize=14;sourcePerimeterSpacing=8;targetPerimeterSpacing=8;" edge="1" parent="97" source="88" target="91">
                    <mxGeometry relative="1" as="geometry"/>
                </mxCell>
                <mxCell id="93" value="最终 Admission 们被放入到了 server.Config 的 AdmissionControl 属性" style="shape=note;whiteSpace=wrap;html=1;backgroundOutline=1;fontColor=#000000;darkOpacity=0.05;fillColor=#FFF9B2;strokeColor=none;fillStyle=solid;direction=west;gradientDirection=north;gradientColor=#FFF2A1;shadow=1;size=20;pointerEvents=1;sketch=0;hachureGap=4;jiggle=2;curveFitting=1;fontFamily=Architects Daughter;fontSource=https%3A%2F%2Ffonts.googleapis.com%2Fcss%3Ffamily%3DArchitects%2BDaughter;fontSize=24;" vertex="1" parent="97">
                    <mxGeometry x="240" y="1260" width="360" height="160" as="geometry"/>
                </mxCell>
                <mxCell id="95" value="" style="edgeStyle=none;orthogonalLoop=1;jettySize=auto;html=1;rounded=0;sketch=1;hachureGap=4;jiggle=2;curveFitting=1;fontFamily=Architects Daughter;fontSource=https%3A%2F%2Ffonts.googleapis.com%2Fcss%3Ffamily%3DArchitects%2BDaughter;fontSize=24;fontColor=#000000;endArrow=open;startSize=14;endSize=14;sourcePerimeterSpacing=8;targetPerimeterSpacing=8;strokeWidth=2;strokeColor=#FF3333;" edge="1" parent="97">
                    <mxGeometry width="140" relative="1" as="geometry">
                        <mxPoint x="600" y="1340" as="sourcePoint"/>
                        <mxPoint x="740" y="1340" as="targetPoint"/>
                    </mxGeometry>
                </mxCell>
                <mxCell id="96" value="" style="rounded=0;whiteSpace=wrap;html=1;sketch=0;hachureGap=4;jiggle=2;curveFitting=1;fontFamily=Architects Daughter;fontSource=https%3A%2F%2Ffonts.googleapis.com%2Fcss%3Ffamily%3DArchitects%2BDaughter;fontSize=24;fontColor=#000000;fillColor=none;strokeColor=#FF3333;strokeWidth=2;" vertex="1" parent="97">
                    <mxGeometry x="740" y="1320" width="780" height="50" as="geometry"/>
                </mxCell>
            </root>
        </mxGraphModel>
    </diagram>
</mxfile>